<svg width="50" height="48" viewBox="0 0 50 48" fill="none" xmlns="http://www.w3.org/2000/svg">
<g clip-path="url(#clip0_319_12584)">
<path fill-rule="evenodd" clip-rule="evenodd" d="M44.7467 23.3329V33.7682C44.7467 35.1788 44.1734 36.4578 43.2502 37.3811C42.3269 38.3043 41.0479 38.8776 39.6374 38.8776H8.70505C7.29449 38.8776 6.01545 38.3043 5.09219 37.3811C4.16895 36.4578 3.5957 35.1788 3.5957 33.7682V14.4356C3.5957 13.0188 4.17398 11.7347 5.10432 10.8106C6.02663 9.89447 7.30068 9.32617 8.70505 9.32617H30.7401C30.4247 10.1131 30.1995 10.946 30.0773 11.8118H8.70505C8.48401 11.8118 8.26953 11.8391 8.06468 11.8903L23.7125 25.8979L23.7136 25.8989C23.9748 26.1299 24.3672 26.1301 24.6285 25.8991L24.6299 25.8979L31.8585 19.4235C32.33 20.1095 32.8788 20.7382 33.4924 21.297L31.7506 22.8569L42.1772 34.43C42.232 34.2187 42.261 33.997 42.261 33.7682V23.9956C43.127 23.8734 43.9597 23.6482 44.7467 23.3329ZM29.8991 24.5154L40.4761 36.2553C40.2129 36.3441 39.9309 36.392 39.6374 36.392H8.70505C8.44209 36.392 8.18842 36.3535 7.94917 36.2818L19.1137 25.1172L22.0578 27.7527L22.0612 27.7556C23.2645 28.8253 25.0779 28.8253 26.2813 27.7556L26.2847 27.7526L29.8991 24.5154ZM17.2589 23.4568L6.19156 34.5241C6.1198 34.2849 6.08133 34.0312 6.08133 33.7682V14.4356C6.08133 14.1353 6.13149 13.8471 6.22411 13.5788L17.2589 23.4568Z" fill="white"/>
<path d="M40.7418 20.3733C44.6314 20.3733 47.7845 17.2202 47.7845 13.3307C47.7845 9.44117 44.6314 6.28809 40.7418 6.28809C36.8523 6.28809 33.6992 9.44117 33.6992 13.3307C33.6992 17.2202 36.8523 20.3733 40.7418 20.3733Z" fill="#7F56D9" stroke="white" stroke-width="2.48563"/>
</g>
<defs>
<clipPath id="clip0_319_12584">
<rect width="48.0555" height="46.3984" fill="white" transform="translate(0.972656 0.902344)"/>
</clipPath>
</defs>
</svg>
